/* XPM */
static char *d45e436372124d3bd85f812e6c8b9b300Qpjw8Unpyvs3d9R[] = {
/* columns rows colors chars-per-pixel */
"64 64 219 2 ",
"   c #030003",
".  c #0B0102",
"X  c #050509",
"o  c #0B060A",
"O  c #0C0A0C",
"+  c #07080D",
"@  c #11060A",
"#  c #130A0C",
"$  c #150908",
"%  c #17120F",
"&  c #0E0B11",
"*  c #140D13",
"=  c #1B0F14",
"-  c #0C1218",
";  c #131215",
":  c #1C1313",
">  c #141419",
",  c #1B151B",
"<  c #1D1A1C",
"1  c #1F1A17",
"2  c #231C1B",
"3  c #241819",
"4  c #27201E",
"5  c #171E24",
"6  c #211C22",
"7  c #291E22",
"8  c #1D2025",
"9  c #252225",
"0  c #24252A",
"q  c #2B252A",
"w  c #2E292D",
"e  c #2E2424",
"r  c #31282B",
"t  c #322C33",
"y  c #3B363B",
"u  c #393337",
"i  c #263137",
"p  c #423A3D",
"a  c #413438",
"s  c #3E3C40",
"d  c #433D43",
"f  c #35464D",
"g  c #4B444A",
"h  c #4E484D",
"j  c #464346",
"k  c #52464B",
"l  c #544B4D",
"z  c #574847",
"x  c #544D52",
"c  c #5A5255",
"v  c #5C545A",
"b  c #575458",
"n  c #4F5052",
"m  c #645A5D",
"M  c #695B5E",
"N  c #665E64",
"B  c #536168",
"V  c #6D6165",
"C  c #6C656B",
"Z  c #6F696E",
"A  c #656465",
"S  c #746A6D",
"D  c #716669",
"F  c #746D72",
"G  c #796E72",
"H  c #7B7276",
"J  c #7A767B",
"K  c #6D6C74",
"L  c #85797B",
"P  c #7F7D82",
"I  c #837D83",
"U  c #887D83",
"Y  c #7C8992",
"T  c #8D8589",
"R  c #898688",
"E  c #92868A",
"W  c #92898C",
"Q  c #948685",
"!  c #958D93",
"~  c #9B8F93",
"^  c #9A9195",
"/  c #9B9499",
"(  c #9E999C",
")  c #969197",
"_  c #889096",
"`  c #A1969B",
"'  c #A39A9E",
"]  c #A09292",
"[  c #9C9BA0",
"{  c #A59CA1",
"}  c #A99FA3",
"|  c #9EB1B8",
" . c #9FA2AB",
".. c #ABA1A5",
"X. c #AEA5AA",
"o. c #ABA8AF",
"O. c #B2A7AC",
"+. c #B3AAAD",
"@. c #BAABAD",
"#. c #B5A5A5",
"$. c #A9ADB4",
"%. c #B5ADB3",
"&. c #B9AEB3",
"*. c #B9AFB8",
"=. c #B5B0B6",
"-. c #BCB1B6",
";. c #BDB3BA",
":. c #BDB9BE",
">. c #B4B4BC",
",. c #AAB7BD",
"<. c #C3B3B5",
"1. c #C2B6BC",
"2. c #C4B9BE",
"3. c #CCBABB",
"4. c #C8B5B9",
"5. c #D1BEBD",
"6. c #D3C0BF",
"7. c #8DBACD",
"8. c #82B0C7",
"9. c #96B8C9",
"0. c #97BFD2",
"q. c #8DBCD0",
"w. c #A8BEC6",
"e. c #B8BCC1",
"r. c #C4BBC2",
"t. c #CABEC4",
"y. c #C6BBC5",
"u. c #D2BEC2",
"i. c #9CC3D4",
"p. c #96C4D7",
"a. c #AAC3CA",
"s. c #B5C6CC",
"d. c #A2C5DA",
"f. c #A4CCDD",
"g. c #ABCBD8",
"h. c #B0CCD4",
"j. c #B6C5D8",
"k. c #ACD1DD",
"l. c #B9D2DB",
"z. c #A7CEE1",
"x. c #ADD3E3",
"c. c #A9D2E5",
"v. c #B8D7E6",
"b. c #BBE3F3",
"n. c #C6C0C6",
"m. c #CCC1C6",
"M. c #CDC3CB",
"N. c #CEC9CE",
"B. c #C6C9CE",
"V. c #D4C2C4",
"C. c #D9C5C6",
"Z. c #DBCCC7",
"A. c #D2C6CC",
"S. c #DAC7CA",
"D. c #D4C9CE",
"F. c #DCCBCC",
"G. c #D6D2CE",
"H. c #DAD1CF",
"J. c #CDCBD1",
"K. c #D3C6D1",
"L. c #D5CBD3",
"P. c #DACED5",
"I. c #D7CCD8",
"U. c #DBCFD9",
"Y. c #DFC5D0",
"T. c #C6D3DA",
"R. c #D4D1D6",
"E. c #DDD1D4",
"W. c #D6D4D9",
"Q. c #DCD2DA",
"!. c #DDD9DE",
"~. c #E1CDCE",
"^. c #E2D1CE",
"/. c #E2CED1",
"(. c #E6CED8",
"). c #E3D3D3",
"_. c #E8D5D6",
"`. c #E1D6DB",
"'. c #EAD6D9",
"]. c #E3DBDE",
"[. c #EBDBDC",
"{. c #E6D9D6",
"}. c #C5DBE3",
"|. c #CDDDE4",
" X c #C8D7E8",
".X c #D4DCE2",
"XX c #DDDBE2",
"oX c #DEDCEA",
"OX c #D9D9E8",
"+X c #D5DFF3",
"@X c #E4DDE3",
"#X c #E9DDE3",
"$X c #E2D8E6",
"%X c #DBE4EB",
"&X c #D7E3EA",
"*X c #C6E8F9",
"=X c #D4E3F2",
"-X c #DDE9F1",
";X c #DBE7F7",
":X c #C4E2EA",
">X c #E6E0E6",
",X c #EAE2E6",
"<X c #E4E3EB",
"1X c #EBE5EB",
"2X c #EEE8ED",
"3X c #F0E7EB",
"4X c #F1EBEE",
"5X c #E3EBF3",
"6X c #ECEBF3",
"7X c #ECEAF8",
"8X c #F2EBF1",
"9X c #F9EEF2",
"0X c #F0E6F1",
"qX c #EAF3F9",
"wX c #F6F1F6",
"eX c #F5F4FA",
"rX c #FBF5FB",
"tX c #FFF9FE",
"yX c #F8F5F7",
/* pixels */
"S.~.F.~.^.E.).).).).~.(.).).H.Z.E.G.G.G.G.G.P.F.E.H.F.E./.F.F.S.K.I.I.K.K.K.K.K.G.N.D.E.E.`.E.{.!.K.W.N.W.y.K.K.N.A.t.t.t.y.y.y.",
"S.F.F.~.).H.^.E./.'._.(.~.F.P.{.D.Z.H.H.E.Z.F.A.V.D.F.P.K.S.Y.U.K.K.I.U.$X@X@XXX!.N.n.=.' E S C d s %.Q.M.E.A.A.A.K.K.t.K.y.y.y.",
"F.~.~.~.E.).^.E././.F.~.`.{.Z.F.).(././.Y././.(.P.P.Q.Q.Q.XXXX$X`.D.y.+./ R A x y 0 < o           o J XXM.L.K.P.K.K.K.A.K.y.t.t.",
"~.F.F.^.).E.).).'.'.[.(.).Z.D.E.Y.Y.Y.G.).$X$X#X`.I.M.:.$.! K b p r 3 .                   +   + ,   N !.L.L.K.K.K.K.K.K.K.K.K.K.",
"S.~./.).).).E.)./.~././.{.E.,X!.>X]..XG.:.( R K x s 0 & + X     . . . . . . . # 2 9 y h N I ( =.I X Z @Xy.!.L.D.K.K.K.K.K.K.K.B.",
"~.~./.).).E.).).'.F./.'.).&.-.R J A j 4 O               X + ; , e u z m H W +.2.I.!.8XtXtXtXrXtXe.X C Q.N.A.L.I.I.K.I.K.K.K.K.t.",
"~././.).{.).E.)./.).[.`.Q 2 r X O O O +   X O : w d x Z U ` *.V.Q.>X6XeXeXeXqX2X6X2X8X8X1X0X2XyX} X v $X$XA.K.D.I.K.K.K.I.I.K.K.",
"~.~./.).).).{.)./.~.{.[.H   0 < s n A J R ( ;.J.W.@X6X9XwX0X1X<X-X=X&X=X=X&X-X-X5X&X%XoX%X6X6XyXr.  C $Xy.Q.P.K.I.I.K.I.I.I.K.K.",
"~.~.).).{.).).^._._./.#XV 9 N.B.<X7X7X7X7XqX5X%X&X&X&X&X|.=XT. Xv.v.b.x.x.x.k.l.a.h.T.T.l.5X&XqXe.  v >XN.I.E.K.I.P.K.I.P.I.K.P.",
"/.).)._.).).{._./././.3XZ t qXqX-X=X+X X=X=X X}.l.h.a.h.g.:Xa.9.p.p.p.p.p.z.k.k.x.k.}.}.|.qX&XeXe.  b @XA.I.U.I.P.P.I.I.P.I.I.K.",
"/.).).).).)._.^._./.).#XC 0 <X|.g.b.b.i.i.f.x.i.7.i.9.f.i.b.z.z.q.f.8.7.i.z.x.k.v.h.l.}.|.-X.XqXe.  x @XD.I.P.P.I.P.I.P.U.P.P.I.",
"/.).).).).{.)._.'.~./.3XH 0 !.a.k.7.p.7.z.q.p.7.x.z.d.d.f.b.z.0.f.c.i.i.d.z.l.v.=XT.:X%X-X5XoXrXy.  x @XK.R.P.P.P.U.P.U.U.P.I.P.",
"(./._._.).)._.^.).P.).3XY 8 W.a.b.i.i.g.v.9.9.9.g.j.j.j. X;X+X+X*X;X;X;X=X;X=XqXqX5X7XqX6XyX0XrXn.  h $XK.E.P.U.U.U.U.U.U.U.U.U.",
"/.'._.).{.).^._._.).).>XJ ; .XT.a.l.=Xv.v.T.=X&X+XOX7XOXOXOX$XoXoXOX%XoX<XqXXX6X<X7X2X4X1X9X#XrXM.  h @XP.Q.U.W.U.U.U.U.U.W.P.I.",
"(._.).).{.).).^.).).).,X_ > -X-X5X&X&X&X%X.X.X.X<X!.OX!.>X1X@X@X#X#X#X>X1X1X1X1X1X4X4XqX1X8X0XrXK.  g XXI.P.U.U.Q.U.U.U.U.U.U.I.",
").).).`.).)._.)._._.E.>X) - W.!.W.W.R.R.R.@X@X].XX!.@X@XW.Q.E.#X@X#X[.[.4X].4X1X1X2X2X4X8X8X6XrXJ.  d XXI.W.P.`.U.U.U.U.Q.Q.W.I.",
").).).{._._.)._.{.E.).,X^ : R.1X>XXX>X>X].XX].>X@X>X@X#XQ.>X#X@X@X`.4X,X1X>X1X0X1X0X2X2X8X8X0XwXK.  s @XP.!.I.U.U.U.U.U.U.U.U.U.",
")._.).{.).{.{.{.).H.E.>X/ # G.3X@X>X>X].>X>X%X].@X!.Q.,X`.' { `.@X@X1X@X0X>X1X1X4X4X6X0X8X8X8XwXL.  s XXU.!.P.`.U.U.U.U.U.U.U.U.",
").^.{.)._.).).).).E.).>X' % D.3X@X@X>X>X>X>X].>XXX#X@XI.:.Z J R.@X@X<X$X1X1X1X1X1X8X0X8X8X8X8XwXK.X s @XI.!.U.).U.U.U.U.U.U.Q.U.",
"^.).).).{._.).).).).E.[...$ M.2X@X@X@X>X].@X>X].@X@X@XOX!.J.B..XW.#X>X@X1X1X2X1X4X0X0X0X8X8X8XwXW.X y XXU.Q.Q.Q.U.(.U.U.U.U.U.U.",
").^.^._.).).).).).).E.].+.O 6.3X@X@X>X@X>X@X@X@XXXQ.#Xe.i 0 i 5 y.@X>X#X1X1X0X1X1X8X1X0X8X8X8XwXW.o y XXP.U.Q.Q.U.U.U.Q.U.U.U.U.",
"^.^.).).).).)./.).H.E.{.&.o :.3X].XX].@X@X@X].>X#XXX<X .- i f - >.@X#X<X>X#X1X2X0X8X0X4X8X0X0XwXQ.+ t !.W.U.Q.U.U.U.U.U.U.U.U.U.",
"^.^.).).).).)./.).E.).`.<.o :.2X@XXX#X@X$X#X#X#X@XXX<X,.B | | B $.1X@X<X1X1X0X1X1X4X2X2X8X8X8XwX!.+ t @XQ.P.Q.W.U.U.U.U.U.U.U.U.",
"^.^.^.).).)./._.).).E.{.<.o <.4X%X].@X@X#X@X@X@X$XXX<X,.Y l.l._ $.1X$X1X1X1X1X1X0X0X4X6X8X8X8XeXXXo t XXQ.I.).U.U.U.U.U.U.U.U.U.",
"~.^.^.).^.^._.(.~._.~.`.m.@ +.4X{.{.>X{.#X#X#X#X$X`.OXT.s.s.a.s.XX#X@X1X1X1X1X1X0X1X8X4X0X8X8X8X@X& w Q.W.Q.I.`.U.U.U.U.U.U.U.U.",
"^.~.).~././._././.^.P._.t.# X.4XXX%X>X%X$X#X$X`.$X$XOX.Xs.a.a.s.XX@X@X1X#X1X1X1X1X8X8X6X4X8X8X8X<X* w W.E.Q.I.`.U.U.U.U.U.XXU.U.",
"~.~.~././././.(.~.).^.).V.# } 4X{.>X>X{.$X#X@X$XQ.XXXXoX&Xs.s.&XXX@X@X>X1X1X1X1X2X1X0X4X0X8X8X8X@X- q !.U.Q.P.Q.U.(.Q.U.U.Q.U.U.",
"^.~.~./.~././.~./.).P.).D.# ` 9XXX{.>X>X#X#X@X].$X@XXXXXW.,.,.W.%X#X@X>X$X#X1X7X1X0X1X8X0X8X8X8X>X> q W.Q.Q.P.Q.U.U.U.U.U.Q.Q.U.",
"~.~.~.~.~.~.~.~.).F.).P.F.= ! 9X].>X#X#X#X#X#X@X@X@X!.!.!.s.s.W.<X#X<X$X1X<X1X0X1X6X4X0X7X8X8X8X1X> 0 W.U.U.Q.Q.U.U.U.U.U.U.Q.U.",
"C.~.~.~.~.~.~.~.).F./.P.P.: T 9X].>X>X].].#X>XXXXX@X].&X1X<X%X2X>X1X>X#X1X#X1X1X0X1X8X4X8X8X8X8X1X, 6 W.W.U.Q.P.U.U.U.U.U.Q.Q.U.",
"~.Z.~.~.~.~.~.~.).F.).D.E.3 U 9X>X[.,X[.#X@X].].@X>X>X].>X>X>X@X#X<X1X1X<X1X1X1X0X2X8X8X0X8X8X8X2X< 6 I.U.U.$XI.U.(.U.U.U.U.U.U.",
"C.~.~.~.~.~.~.~./.F.E.F.`.3 L 9X].,X>X>X#X>X>X!.@XXX>X>X>X,X,X>X>X#X$X1X#X1X#X1X1X1X0X1X8X8X8X7X2X< 6 E.U.I.U.U.U.Q.U.U.U.Q.U.Q.",
"~.C.~.~.C./.S.S.F.F.E.S.`.7 S tX>X,X,X>X>X].@X@X$X<X>X$X#X1X1X1X>X1X>X1X>X,X1X4X1X2X4X4X4X4X4XwX2X2 6 R.K.Q.E.!.P.U.I.U.U.W.U.U.",
"~.C.~.C.~.~._.).).F.E.A.[.r S 4X].>X>X>X].>X>X@X>X1X1X#X1X#X#X1X1X>X>X>X,X1X1X1X4X4X4X4X4X4X4XwX2X8 < R.I.Q.I.P.I.U.U.U.U.U.W.U.",
"5.~.C.5.'.C.5.C.F.C.).P.#X7 V tX,X,X>X>X,X,X1X>X@X1X#X1X0X#X>X2X1X1X1X1X,X,X2X1X<X>X1X2X4X4XyX4X7X7 < I.U.Q.P.P.P.(.U.U.U.U.U.U.",
"5.~.F.V.~.^.~.).A.Z.F.t.[.u m 3X,X,X2X>X>X>X,X@X1X1X<X#X1XXXQ.@X1X1X1X1X4X2X4X4XyXyX4X4XyX4X4X6X8X9 , N.W.Q.P.W.U.U.U.U.U.U.Q.Q.",
"/.5.~.~.6.[.^.~.[.[.{.{.4Xa l 9X].].>X%X>X>X>X>X@X@XXX1X1X@XXX2X,X,X>X1X<X2X2X2X2X1X2X2X4XwXwX8X8Xq * M.U.U.I.E.U.U.U.U.U.U.Q.Q.",
"C.C.~.6.~.#.M V D D L T ` r x tXyXyXyXyX4XwX4XwX8XwX8X8XwX1X<X2X2X1X1X2X1X1X,X,X1X1X1X2X2X2X2X2X8Xt * N.W.I.P.Q.U.U.U.Q.U.Q.Q.Q.",
"5.~.6.C.~.z . $ . % % . = @ : k l c M S L W ) ( X.%.;.:.N.W.!.<X1X2X2X4XyXyXyXyXyXtXtXtXtXyXrXrX6Xt * J.`.E.P.Q.U.$XQ.U.U.U.U.Q.",
"~.3.6.~.#.= 3 3 e % 3 3 : # .   X X X X           o O O , < 9 q u u j n m A F J R W ( ..=.:.n.D.@X0 # M.$XK.I.Q.U.U.U.U.U.U.U..X",
"6.6.5.^.L $ : 3 3 1 1 4 : v L V m c p p u 4 < 1 & O     O                                 o o o * + ; K.Q.K.Q.P.U.(.U.U.(.U.Q.Q.",
"C.C.5.5.z $ 3 3 2 4 3 3 # S m.2.6.-.e.6.6.X.+.o.} ( W R F F K n h j s u w 9 3 , O o o           X   * t.@XU.P.I.U.U.U.U.Q.XXQ.Q.",
"6.6.~.<.3 : 3 1 : 1 1 < # S M.+.+.+.-.} +.@.;.X.-.=.-.2.:.N.:.6.e.6.:.;.=.%.O.X.{ ( ! T L H Z C b g x y.!.P.P.).U.XXU.U.Q.Q.Q.Q.",
"C.6.~.Q $ % 3 4 4 2 % 4 # V m...@.+.6.+.-.-.-.-.-.X.-.=.=.' h &.-.-.-.=.-.;.-.-.;.;.1.2.y.t.t.y.M.y.r.W.W.U.I.W.U.U.U.U.Q.(.OXQ.",
"5.6.6.z $ : 4 3 4 < ; < $ c V.D.t.@.@.&.6.+.+.-.@.@.;.&.;.! w ..-.-.;.-.;.1.1.1.1.;.;.-.1.*.*.%.o.=.e.M.K.Q.Q.`.U.Q.U.Q.Q.$XU.Q.",
"6.^.<.4 1 3 e 2 1 1 1 4 # q G L ] 3.4.@.-.<.-.@.:.2.;.-.r.&.U -.;.:.*.-.-.*.*.*.-.-.;.-.;.<.<.1.r.*.r.I.$X`.K.P.U.U.U.U.Q.Q.Q.Q.",
"5.6.Q . $ $ 1 1 1 4 2 2 , * = @ a 4./.A.3.m.Z.6.2.3.1.<.2.m.;.-.6.2.2.1.1.1.1.1.1.1.1.1.1.1.r.1.y.=.;.I.Q.W.P.U.$XU.U.Q.Q.Q.Q.Q.",
"C.^.Q z z a 4 4 % % o . : = = @ M S.V.S.A.H.D.D.E.A.`.D.D.m.{ ' / ( ' ..+.*.4.1.1.1.1.;.1.r.1.r.;.=.r.W.I.I.(.$XU.U.U.U.Q.(.OXQ.",
"Z.^.{.{.^.C.<.@.] U N z p r = . E V.S.u.A.S.D.P.P.S.D.P.P.m.O.Q W E E T U / E.L.L.K.K.J.K.B.M.M.y.n.N.P.W.Q.U.U.P.Q.Q.Q.`.Q.`.Q.",
"Z.Z.Z.Z.Z.~.^.F.^.^.).E.Y.n.&.{ -.E.P.A./.A.V.A.F.P.A.S.F.C.4.;.+.' ` ' ' ' R.E.W.I.Q.I.I.U.U.U.I.I.P.P.P.I.P.P.Q.Q.Q.Q.Q.Q.Q.U.",
"^.^.^.^.^.~.~.~.~.F.C.V.V.A.P.P.D.E.D.P.`.P.F.D.N.E.A.3.A.A.t.V.M.6.&.....O.P.L.I.I.U.U.U.U.U.Q.W.E.P.P.I.U.W.U.P.U.).Q.).Q.Q.U.",
"Z.^.^.^.^./.~.~.C.~.).).Q.).P.K.E.K.F.E.E.K.E.E.].V./ S D N m V Z L T T ^ ' M.Q.I.L.U.I.I.I.I.U.I.L.I.I.U.U.).`.U.W.Q.Q.U.W.U.P.",
"^.^.~.^.~.~.(.^.'.P.u.3.t.K.`.`.Q.E.`.E.F.P.F.P.u.1.+...` W H m v l l l v m / $XQ.Q.!.Q.Q.Q.XXU.U.Q.U.U.U.P.P.P.Q.Q.Q.Q.Q.Q.U.U.",
"^.^.~.~./.~.~./.).Y.A.A.).@X].P.{.D.E.E.E.].`.E.E.D.L.F.m.3.-...` T T ^ O.O.t.@XQ.!.!.`.`.Q.U.Q.Q.).`.`.Q.Q.Q.U.Q.Q.Q.Q.Q.Q.U.W.",
"6.6.^.^.^././.(.Y.S.V.I.#X1XQ.M.D.A.Z.A.E.Q.P.E.`.].].Q.`.`.E.L.#XD.N.m.E.!.Q.A.Q.U.U.Q.Q.Q.W.Q.Q.W.Q.Q.Q.Q.Q.Q.Q.Q.).Q.Q.Q.U.P.",
"6.6.~.6.~.u.u.5.u.t.u.P.#X9X@XK.E.A.D.N.V.M.2.N.3.L.S.D.`.F.-.@.%.=.D.E.].P.!.$X`.!.Q.$X$XQ.Q.Q.Q.U.U.U.U.E.W.U.U.Q.P.W.U.U.P.P.",
"C.S.F././.P.I.Y.A.t.u.I.#X1X`.M.D.K.P.P.P.D.K.D.A.m.m.n.n.y.y.M.2.=.m.].!.W.$XQ.@X$X`.!.`.$X$X`.Q.Q.`.Q.Q.Q.Q.Q.U.Q.Q.U.I.K.K.K.",
"P.P.P.Y.P.Y.(.Y.`.P.A.P.Q.$XI.M.N.A.D.L.L.E.E.E.P.L.P.K.D.D.D.D.R.n.m.D.M.K.`.@X`.Q.Q.Q.Q.P.Q.W.`.`.Q.`.!.).Q.Q.).Q.).Q.W.P.P.P.",
"1.3.A.I.(.`.(.$X(.U.P.U.Q.$XE.L.D.D.D.A.D.D.D.D.L.E.I.E.P.P.D.D.E.A.K.L.A.K.!.U.W.U.W.E.P.W.U.U.Q.Q.Q.Q.U.Q.Q.Q.Q.Q.Q.W.W.E.L.L.",
"' } +.*.r.t.I.u.I.U.`.`.Q.W.J.M.A.A.A.D.D.K.L.D.A.A.D.D.D.D.D.A.D.N.K.I.K.P.Q.K.P.U.P.R.U.P.P.U.I.U.U.P.U.U.P.Q.U.I.P.I.I.L.K.A.",
"%.>.=.*.*.*.*.*.y.y.t.t.K.W.Q.P.P.K.P.P.P.D.K.D.D.D.D.K.D.D.D.D.A.A.N.M.M.K.I.L.K.I.L.I.L.I.K.K.K.I.I.E.W.U.U.P.P.I.I.K.A.K.A.M.",
"y b P [ e.y.y.y.*.r.e.%.;.y.t.t.A.K.D.L.D.P.L.K.E.L.E.L.L.D.D.L.K.A.M.N.N.A.L.L.J.D.L.D.D.D.K.N.D.A.D.K.K.K.P.K.P.K.A.A.A.M.t.y.",
"+ - ; 9 s v U U O.e.y.y.r.1.*.*.*.;.r.t.A.L.P.U.K.P.I.L.I.I.P.L.K.L.I.L.W.R.L.L.D.L.L.L.D.N.N.A.M.N.N.M.M.A.M.M.M.M.y.y.y.r.;.*.",
"; > ; & * = , 3 t d F ! } *.e.*.r.;.;.;.;.2.r.r.A.A.D.R.E.P.P.R.I.I.K.I.P.L.K.E.I.R.L.I.L.D.D.K.A.A.K.A.A.A.t.M.y.1.1.*.*.&.O.X."
};
